<?xml version="1.0" encoding="UTF-8" standalone="no"?>
<!DOCTYPE svg PUBLIC "-//W3C//DTD SVG 20010904//EN"
              "http://www.w3.org/TR/2001/REC-SVG-20010904/DTD/svg10.dtd">

<svg xmlns="http://www.w3.org/2000/svg"
     width="144.51mm" height="144.51mm"
     viewBox="0 0 512 512">
  <path id="選択範囲"
        fill="none" stroke="black" stroke-width="1"
        d="M 92.00,132.00
           C 92.00,132.00 92.00,98.00 92.00,98.00
             92.06,93.72 92.38,89.52 97.04,87.75
             104.72,84.84 107.91,91.65 108.00,98.00
             108.00,98.00 108.00,132.00 108.00,132.00
             108.00,132.00 137.00,132.00 137.00,132.00
             142.18,132.01 146.77,131.91 149.69,137.09
             151.70,140.68 151.00,151.48 151.00,156.00
             151.00,156.00 151.00,198.00 151.00,198.00
             158.18,198.00 175.74,196.19 180.70,201.28
             184.19,204.85 183.99,210.37 184.00,215.00
             184.01,224.44 185.74,234.50 174.00,237.00
             174.00,237.00 174.00,281.00 174.00,281.00
             174.00,281.00 196.00,281.00 196.00,281.00
             196.00,281.00 196.00,180.00 196.00,180.00
             196.00,172.30 193.79,154.72 201.19,150.45
             204.07,148.79 207.78,149.01 211.00,149.00
             211.00,149.00 315.00,149.00 315.00,149.00
             319.77,149.00 336.54,148.54 339.98,149.65
             342.45,150.44 344.28,151.82 345.55,154.10
             347.20,157.08 346.99,160.71 347.00,164.00
             347.00,164.00 347.00,215.00 347.00,215.00
             347.00,215.00 399.00,215.00 399.00,215.00
             404.68,215.03 409.51,215.64 412.70,221.09
             414.60,224.34 414.95,229.30 415.00,233.00
             415.09,241.21 414.06,260.19 416.00,267.00
             418.83,258.69 425.56,255.12 434.00,255.00
             434.00,255.00 495.00,255.00 495.00,255.00
             497.52,255.00 500.60,254.89 503.00,255.65
             511.88,258.44 513.52,268.15 510.90,276.00
             510.90,276.00 491.26,318.00 491.26,318.00
             491.26,318.00 457.14,391.00 457.14,391.00
             454.16,397.69 445.01,418.75 439.96,422.30
             435.93,425.12 431.66,424.99 427.00,425.00
             427.00,425.00 119.00,425.00 119.00,425.00
             119.00,425.00 44.00,425.00 44.00,425.00
             33.44,424.98 25.26,421.09 26.10,409.00
             26.46,403.81 33.16,390.29 35.76,385.00
             37.25,381.96 40.08,377.43 39.39,374.00
             38.69,370.55 28.51,358.97 25.72,355.00
             15.11,339.92 6.22,322.94 1.63,305.00
             -0.08,298.32 -1.96,288.68 4.21,283.65
             8.92,279.81 19.97,281.00 26.00,281.00
             26.00,281.00 26.00,237.00 26.00,237.00
             13.66,234.37 15.89,222.78 16.00,213.00
             16.05,208.90 16.25,204.40 19.30,201.28
             24.23,196.22 40.94,198.00 48.00,198.00
             48.00,198.00 48.00,151.00 48.00,151.00
             48.02,139.86 48.84,132.08 62.00,132.00
             62.00,132.00 92.00,132.00 92.00,132.00 Z
           M 135.00,148.00
           C 135.00,148.00 64.00,148.00 64.00,148.00
             64.00,148.00 64.00,198.00 64.00,198.00
             64.00,198.00 135.00,198.00 135.00,198.00
             135.00,198.00 135.00,148.00 135.00,148.00 Z
           M 264.00,165.00
           C 264.00,165.00 212.00,165.00 212.00,165.00
             212.00,165.00 212.00,215.00 212.00,215.00
             212.00,215.00 264.00,215.00 264.00,215.00
             264.00,215.00 264.00,165.00 264.00,165.00 Z
           M 331.00,165.00
           C 331.00,165.00 280.00,165.00 280.00,165.00
             280.00,165.00 280.00,215.00 280.00,215.00
             280.00,215.00 331.00,215.00 331.00,215.00
             331.00,215.00 331.00,165.00 331.00,165.00 Z
           M 168.00,214.00
           C 168.00,214.00 32.00,214.00 32.00,214.00
             32.00,214.00 32.00,221.00 32.00,221.00
             37.20,221.00 47.65,220.08 51.79,223.01
             56.88,226.60 56.47,232.89 50.96,235.83
             48.36,237.21 44.88,236.99 42.00,237.00
             42.00,237.00 42.00,281.00 42.00,281.00
             42.00,281.00 158.00,281.00 158.00,281.00
             158.00,281.00 158.00,237.00 158.00,237.00
             158.00,237.00 89.00,237.00 89.00,237.00
             85.75,236.99 81.96,237.29 79.21,235.26
             74.44,231.74 75.01,225.30 80.11,222.45
             83.05,220.80 86.73,221.01 90.00,221.00
             90.00,221.00 168.00,221.00 168.00,221.00
             168.00,221.00 168.00,214.00 168.00,214.00 Z
           M 264.00,231.00
           C 264.00,231.00 212.00,231.00 212.00,231.00
             212.00,231.00 212.00,281.00 212.00,281.00
             212.00,281.00 264.00,281.00 264.00,281.00
             264.00,281.00 264.00,231.00 264.00,231.00 Z
           M 331.00,231.00
           C 331.00,231.00 280.00,231.00 280.00,231.00
             280.00,231.00 280.00,281.00 280.00,281.00
             280.00,281.00 331.00,281.00 331.00,281.00
             331.00,281.00 331.00,231.00 331.00,231.00 Z
           M 399.00,231.00
           C 399.00,231.00 347.00,231.00 347.00,231.00
             347.00,231.00 347.00,281.00 347.00,281.00
             347.00,281.00 399.00,281.00 399.00,281.00
             399.00,281.00 399.00,231.00 399.00,231.00 Z
           M 495.00,271.00
           C 495.00,271.00 440.00,271.00 440.00,271.00
             437.76,271.00 434.21,270.79 432.30,272.02
             427.94,274.84 430.75,281.31 424.32,288.83
             418.01,296.21 409.09,296.99 400.00,297.00
             400.00,297.00 165.00,297.00 165.00,297.00
             165.00,297.00 35.00,297.00 35.00,297.00
             35.00,297.00 20.00,296.00 20.00,296.00
             20.00,296.00 16.00,296.00 16.00,296.00
             22.32,317.80 27.79,330.59 41.63,349.00
             43.89,352.01 51.24,362.17 54.18,363.40
             55.91,364.12 59.09,364.00 61.00,364.00
             61.00,364.00 336.00,364.00 336.00,364.00
             339.34,364.01 343.01,363.73 345.89,365.74
             351.61,369.72 350.22,376.81 343.98,379.26
             341.78,380.13 338.39,380.00 336.00,380.00
             336.00,380.00 121.00,380.00 121.00,380.00
             121.00,380.00 64.00,380.00 64.00,380.00
             61.82,380.00 58.32,379.77 56.49,381.02
             54.64,382.29 52.80,386.88 51.86,389.00
             51.86,389.00 43.00,409.00 43.00,409.00
             43.00,409.00 339.00,409.00 339.00,409.00
             339.00,409.00 423.00,409.00 423.00,409.00
             423.00,409.00 430.35,408.01 430.35,408.01
             430.35,408.01 434.78,400.00 434.78,400.00
             434.78,400.00 444.00,380.00 444.00,380.00
             444.00,380.00 382.00,380.00 382.00,380.00
             368.92,379.91 367.56,370.13 374.06,365.74
             377.01,363.74 380.60,364.01 384.00,364.00
             384.00,364.00 444.00,364.00 444.00,364.00
             446.13,364.00 449.58,364.25 451.37,363.01
             453.36,361.61 460.13,346.33 461.74,343.00
             461.74,343.00 481.26,301.00 481.26,301.00
             481.26,301.00 495.00,271.00 495.00,271.00 Z" />
</svg>
